<svg width="210" height="44" viewBox="0 0 210 44" fill="none" xmlns="http://www.w3.org/2000/svg">
<path d="M0.112 32V31.232L4.192 29.264V3.056L0.112 1.088V0.319999H16.72C20.496 0.319999 23.52 1.008 25.792 2.384C28.096 3.728 29.248 5.888 29.248 8.864C29.248 10.656 28.64 12.24 27.424 13.616C26.24 14.96 24.624 16.016 22.576 16.784C20.528 17.52 18.192 17.888 15.568 17.888H11.44V29.264L16.336 31.232V32H0.112ZM11.44 2.96V15.536H13.744C16.304 15.536 18.304 14.944 19.744 13.76C21.184 12.576 21.904 11.088 21.904 9.296C21.904 7.056 21.168 5.44 19.696 4.448C18.224 3.456 16.144 2.96 13.456 2.96H11.44ZM42.0269 32.48C38.7309 32.48 36.1229 31.536 34.2029 29.648C32.3149 27.728 31.3709 25.2 31.3709 22.064C31.3709 19.632 31.8989 17.488 32.9549 15.632C34.0109 13.744 35.4349 12.272 37.2269 11.216C39.0189 10.16 41.0189 9.632 43.2269 9.632C45.8189 9.632 47.8349 10.496 49.2749 12.224C50.7149 13.952 51.4509 16.4 51.4829 19.568L51.2909 19.808H37.8509V20.048C37.8509 21.392 38.1069 22.624 38.6189 23.744C39.1309 24.832 39.9309 25.696 41.0189 26.336C42.1389 26.976 43.5789 27.296 45.3389 27.296C46.2669 27.296 47.2269 27.184 48.2189 26.96C49.2429 26.736 50.2989 26.352 51.3869 25.808H51.5309V26.576C50.7309 28.272 49.4989 29.68 47.8349 30.8C46.2029 31.92 44.2669 32.48 42.0269 32.48ZM42.1229 11.792C41.0029 11.792 40.0749 12.304 39.3389 13.328C38.6349 14.352 38.1869 15.792 37.9949 17.648H46.1069C45.8829 15.44 45.4189 13.92 44.7149 13.088C44.0429 12.224 43.1789 11.792 42.1229 11.792ZM66.1139 32.48C64.0659 32.48 62.2579 32.048 60.6899 31.184C59.1219 30.32 57.9059 29.104 57.0419 27.536C56.1779 25.968 55.7459 24.144 55.7459 22.064C55.7459 19.632 56.2419 17.488 57.2339 15.632C58.2579 13.744 59.6659 12.272 61.4579 11.216C63.2819 10.16 65.3939 9.632 67.7939 9.632C69.2979 9.632 70.6579 9.84 71.8739 10.256C73.0899 10.672 74.0019 11.248 74.6099 11.984C75.1219 12.592 75.3779 13.072 75.3779 13.424C75.3779 13.808 75.1699 14.192 74.7539 14.576L72.4979 16.496H72.1619L70.4819 14.144C69.9379 13.408 69.3939 12.832 68.8499 12.416C68.3059 11.968 67.5859 11.744 66.6899 11.744C65.2179 11.744 64.0979 12.48 63.3299 13.952C62.5939 15.392 62.2259 17.328 62.2259 19.76C62.2259 21.136 62.4659 22.4 62.9459 23.552C63.4259 24.704 64.1779 25.616 65.2019 26.288C66.2579 26.96 67.6179 27.296 69.2819 27.296C70.1779 27.296 71.1379 27.184 72.1619 26.96C73.1859 26.736 74.2419 26.352 75.3299 25.808H75.4739V26.576C74.6739 28.272 73.4579 29.68 71.8259 30.8C70.2259 31.92 68.3219 32.48 66.1139 32.48ZM78.3171 18.32V10.112H100.781V18.32H99.8691L96.4611 12.464H92.9091V29.696L96.9411 31.232V32H82.2051V31.232L86.1891 29.696V12.464H82.6371L79.2291 18.32H78.3171ZM114.793 32.48C112.521 32.48 110.521 31.968 108.793 30.944C107.065 29.888 105.721 28.496 104.761 26.768C103.801 25.04 103.321 23.136 103.321 21.056C103.321 18.944 103.801 17.024 104.761 15.296C105.721 13.568 107.065 12.192 108.793 11.168C110.521 10.144 112.521 9.632 114.793 9.632C117.065 9.632 119.049 10.144 120.745 11.168C122.473 12.192 123.817 13.568 124.777 15.296C125.737 17.024 126.217 18.944 126.217 21.056C126.217 23.136 125.737 25.04 124.777 26.768C123.817 28.496 122.473 29.888 120.745 30.944C119.049 31.968 117.065 32.48 114.793 32.48ZM115.321 30.128C116.249 30.128 117.001 29.76 117.577 29.024C118.185 28.256 118.617 27.248 118.873 26C119.161 24.752 119.305 23.424 119.305 22.016C119.305 20.288 119.129 18.656 118.777 17.12C118.457 15.584 117.929 14.336 117.193 13.376C116.489 12.416 115.545 11.936 114.361 11.936C113.401 11.936 112.617 12.32 112.009 13.088C111.401 13.824 110.953 14.816 110.665 16.064C110.377 17.28 110.233 18.608 110.233 20.048C110.233 21.808 110.409 23.456 110.761 24.992C111.113 26.496 111.657 27.728 112.393 28.688C113.161 29.648 114.137 30.128 115.321 30.128ZM129.379 43.04V42.272L132.595 40.736V15.392L129.523 13.136V12.56L138.259 9.632H138.835L139.219 12.56H139.507C140.691 11.536 141.827 10.8 142.915 10.352C144.035 9.872 145.235 9.632 146.515 9.632C147.923 9.632 149.235 10.064 150.451 10.928C151.699 11.76 152.691 12.96 153.427 14.528C154.163 16.096 154.531 17.968 154.531 20.144C154.531 22.704 154.019 24.912 152.995 26.768C151.971 28.592 150.611 30 148.915 30.992C147.219 31.984 145.379 32.48 143.395 32.48C142.659 32.48 141.939 32.448 141.235 32.384C140.563 32.32 139.923 32.192 139.315 32V40.736L143.059 42.272V43.04H129.379ZM142.531 13.568C141.955 13.568 141.411 13.648 140.899 13.808C140.419 13.968 139.891 14.208 139.315 14.528V28.4C140.243 29.456 141.507 29.984 143.107 29.984C143.875 29.984 144.611 29.744 145.315 29.264C146.051 28.784 146.643 27.936 147.091 26.72C147.571 25.504 147.811 23.776 147.811 21.536C147.811 18.784 147.267 16.768 146.179 15.488C145.091 14.208 143.875 13.568 142.531 13.568ZM163.498 32.432C161.93 32.432 160.586 31.968 159.466 31.04C158.346 30.08 157.818 28.704 157.882 26.912C157.882 25.76 158.106 24.784 158.554 23.984C159.002 23.152 159.786 22.432 160.906 21.824C162.026 21.216 163.594 20.656 165.61 20.144L170.122 19.04V16.064C170.122 14.848 169.754 13.872 169.018 13.136C168.282 12.4 167.338 12.032 166.186 12.032C165.162 12.032 164.426 12.256 163.978 12.704C163.53 13.152 163.306 13.824 163.306 14.72V16.928L163.114 17.12H159.946C159.466 17.12 159.13 17.008 158.938 16.784C158.746 16.56 158.65 16.176 158.65 15.632C158.65 14.928 158.922 14.24 159.466 13.568C160.042 12.896 160.794 12.272 161.722 11.696C162.874 10.96 163.946 10.432 164.938 10.112C165.962 9.792 167.066 9.632 168.25 9.632C169.818 9.632 171.258 9.84 172.57 10.256C173.882 10.672 174.922 11.344 175.69 12.272C176.49 13.168 176.89 14.336 176.89 15.776V28.448C177.402 28.96 178.17 29.216 179.194 29.216H180.586L180.73 29.36V30.032C180.378 30.64 179.77 31.2 178.906 31.712C178.074 32.224 176.986 32.48 175.642 32.48C174.298 32.48 173.194 32.208 172.33 31.664C171.498 31.088 170.858 30.272 170.41 29.216H170.122C169.322 30.112 168.362 30.88 167.242 31.52C166.122 32.128 164.874 32.432 163.498 32.432ZM164.218 25.568C164.218 26.592 164.49 27.36 165.034 27.872C165.61 28.352 166.394 28.592 167.386 28.592C168.25 28.592 169.162 28.4 170.122 28.016V20.96C168.522 21.312 167.29 21.696 166.426 22.112C165.594 22.528 165.018 23.008 164.698 23.552C164.378 24.096 164.218 24.768 164.218 25.568ZM185.61 12.416L182.394 10.88V10.112H194.634V10.88L192.33 12.416V19.376H199.578V12.416L197.322 10.88V10.112H209.562V10.88L206.346 12.416V29.696L209.562 31.232V32H197.322V31.232L199.578 29.696V21.728H192.33V29.696L194.634 31.232V32H182.394V31.232L185.61 29.696V12.416Z" fill="white"/>
</svg>
